<svg width="50" height="50" viewBox="0 0 50 50" fill="none" xmlns="http://www.w3.org/2000/svg">
<g clip-path="url(#clip0_17_10)">
<path d="M0 15C0 13.8954 0.895431 13 2 13H9C10.1046 13 11 13.8954 11 15V48C11 49.1046 10.1046 50 9 50H2C0.895431 50 0 49.1046 0 48V15Z" fill="url(#paint0_linear_17_10)"/>
<path d="M39 2C39 0.895432 39.8954 0 41 0H48C49.1046 0 50 0.89543 50 2V48C50 49.1046 49.1046 50 48 50H41C39.8954 50 39 49.1046 39 48V2Z" fill="url(#paint1_linear_17_10)"/>
<path d="M20 9C20 7.89543 20.8954 7 22 7H29C30.1046 7 31 7.89543 31 9V48C31 49.1046 30.1046 50 29 50H22C20.8954 50 20 49.1046 20 48V9Z" fill="url(#paint2_linear_17_10)"/>
</g>
<defs>
<linearGradient id="paint0_linear_17_10" x1="5.5" y1="13" x2="5.5" y2="50" gradientUnits="userSpaceOnUse">
<stop stop-color="#FB923C"/>
<stop offset="1" stop-color="#F97316"/>
</linearGradient>
<linearGradient id="paint1_linear_17_10" x1="44.5" y1="0" x2="44.5" y2="50" gradientUnits="userSpaceOnUse">
<stop stop-color="#60A5FA"/>
<stop offset="1" stop-color="#3B82F6"/>
</linearGradient>
<linearGradient id="paint2_linear_17_10" x1="25.5" y1="7" x2="25.5" y2="50" gradientUnits="userSpaceOnUse">
<stop stop-color="#FACC15"/>
<stop offset="1" stop-color="#EAB308"/>
</linearGradient>
<clipPath id="clip0_17_10">
<rect width="50" height="50" fill="white"/>
</clipPath>
</defs>
</svg>
